<?xml version="1.0" encoding="UTF-8" standalone="no"?>
<!DOCTYPE svg PUBLIC "-//W3C//DTD SVG 1.1//EN" "http://www.w3.org/Graphics/SVG/1.1/DTD/svg11.dtd">
<svg width="100%" height="100%" viewBox="0 0 2048 2048" version="1.1" xmlns="http://www.w3.org/2000/svg" xmlns:xlink="http://www.w3.org/1999/xlink" xml:space="preserve" xmlns:serif="http://www.serif.com/" style="fill-rule:evenodd;clip-rule:evenodd;stroke-linejoin:round;stroke-miterlimit:2;">
    <g transform="matrix(0.1,0,0,-0.1,0,2048)">
        <path d="M0,20480L0,0L20480,0L20480,20480L0,20480ZM6333,17101C6454,17080 6539,17046 6610,16992C6629,16977 6661,16954 6680,16941C7013,16716 7164,16517 7261,16180C7268,16155 7274,16134 7275,16132C7276,16131 7326,16153 7386,16181C7446,16208 7515,16241 7540,16252C7565,16263 7624,16292 7673,16317C7920,16442 8010,16486 8041,16499C8060,16506 8116,16532 8165,16555C8215,16579 8284,16608 8320,16620C8356,16632 8394,16645 8405,16650C8477,16679 8759,16760 8830,16772C8946,16790 9663,16790 9890,16772C10088,16756 10303,16727 10422,16700C10524,16678 10715,16615 10747,16594C10759,16587 10774,16580 10780,16580C10796,16580 10967,16482 11040,16431C11076,16406 11147,16344 11198,16292L11291,16198L11473,16183C11960,16144 12464,16086 12545,16060C12562,16055 12607,16040 12645,16028C12702,16010 12918,15910 13042,15844C13056,15836 13073,15830 13080,15830C13087,15830 13108,15823 13128,15814C13210,15777 13375,15697 13380,15691C13383,15688 13453,15651 13535,15610C13618,15569 13713,15519 13747,15498C13782,15477 13814,15460 13819,15460C13834,15460 13948,15329 13965,15293C13981,15261 13982,15260 14045,15260L14110,15260L14110,15186C14110,15128 14114,15107 14129,15089L14148,15065L14172,15095C14184,15112 14212,15144 14234,15168C14255,15191 14269,15210 14266,15210C14262,15210 14272,15221 14288,15235C14314,15257 14327,15260 14394,15260L14470,15260L14470,14590L14424,14590C14379,14590 14378,14590 14385,14563C14392,14534 14401,14492 14422,14375L14436,14305L14510,14305L14510,14067L14536,14091C14550,14104 14596,14157 14637,14208L14712,14300L14769,14301C14800,14301 14835,14303 14848,14304C14870,14307 14870,14305 14870,14188C14870,14123 14873,14070 14878,14071C14882,14071 14917,14110 14955,14157C15085,14316 15066,14303 15153,14304L15230,14305L15230,13629L15158,13632L15085,13635L15080,13850C15077,13968 15073,14059 15072,14053C15071,14043 15042,14040 14970,14040L14870,14040L14870,13629L14798,13632L14725,13635L14720,13850C14717,13968 14711,14059 14707,14053C14701,14044 14669,14040 14604,14040L14510,14040L14510,13630L14470,13630C14443,13630 14430,13626 14430,13616C14430,13593 14303,13430 14262,13399C14241,13383 14197,13357 14164,13340C14084,13297 14077,13290 13994,13165C13918,13049 13832,12951 13790,12933C13743,12913 13665,12896 13618,12895C13569,12894 13537,12881 13581,12879C13604,12879 13604,12879 13583,12870C13564,12862 13561,12851 13556,12763C13550,12665 13533,12481 13524,12425L13520,12395L13751,12398C13971,12401 13983,12400 14016,12379C14081,12339 14085,12322 14085,12064L14085,11834L14057,11791C14042,11768 14018,11745 14004,11740C13971,11727 13549,11727 13516,11740C13502,11745 13477,11768 13460,11791C13432,11830 13430,11839 13430,11924C13429,12023 13425,12023 13391,11924C13375,11874 13370,11826 13364,11652L13357,11440L13469,11440C13666,11440 13674,11429 13678,11135C13682,10912 13675,10864 13637,10822C13598,10779 13567,10770 13466,10770L13371,10770L13376,10573C13381,10340 13395,10145 13417,10000C13432,9900 13462,9788 13482,9764C13486,9758 13493,9717 13497,9673C13501,9612 13499,9587 13487,9565L13472,9535L13521,9538C13584,9543 13635,9513 13661,9456C13677,9420 13680,9388 13680,9205C13680,8971 13672,8934 13612,8892C13583,8871 13571,8870 13346,8870L13111,8870L13077,8900C13023,8947 13019,8965 13022,9175L13025,9365L13105,9377L13063,9379C13039,9379 12992,9393 12957,9410C12904,9435 12889,9438 12861,9430C12817,9418 12750,9365 12714,9315C12690,9282 12685,9266 12686,9219C12687,9184 12694,9154 12705,9136C12731,9096 12729,8995 12701,8949C12689,8930 12680,8905 12680,8893C12680,8876 12674,8870 12656,8870C12643,8870 12620,8860 12604,8848C12568,8819 12460,8812 12380,8834C12350,8842 12323,8846 12320,8843C12317,8840 12321,8835 12328,8833C12352,8824 12401,8777 12416,8748C12435,8711 12440,8588 12422,8582C12416,8580 12410,8569 12410,8558C12410,8531 12366,8473 12340,8465C12323,8460 12320,8450 12320,8398L12320,8338L12368,8397C12394,8429 12422,8462 12430,8470C12438,8478 12462,8507 12484,8533L12522,8580L12680,8580L12680,7910L12530,7910L12530,8127C12530,8296 12527,8341 12518,8332C12510,8324 12472,8320 12413,8320L12320,8320L12320,7910L12170,7910L12170,8126C12170,8317 12168,8341 12155,8330C12147,8323 12129,8320 12115,8322C12073,8331 12066,8310 12076,8205C12082,8144 12081,8087 12075,8043C12054,7907 11948,7759 11806,7669C11755,7636 11749,7630 11771,7630C11804,7630 11865,7583 11882,7545C11891,7523 11895,7453 11895,7289L11895,7063L11867,7027C11818,6963 11806,6960 11562,6960C11347,6960 11342,6960 11307,6984C11288,6997 11269,7006 11266,7004C11263,7002 11262,7003 11265,7006C11267,7010 11263,7025 11255,7041C11234,7080 11233,7512 11254,7551C11267,7576 11266,7576 11228,7579L11190,7581L11190,6960L11040,6960L11040,7375L10934,7372C10868,7370 10829,7372 10831,7378C10833,7384 10876,7438 10927,7498L11018,7609L10977,7615C10859,7635 10752,7674 10650,7735C10631,7747 10570,7776 10515,7799C10460,7823 10396,7850 10372,7861C10311,7889 10263,7906 10206,7921L10157,7933L10106,7878C10060,7828 9966,7691 9948,7649C9944,7639 9937,7629 9931,7625C9925,7622 9920,7614 9920,7607C9920,7601 9926,7604 9933,7614C9943,7628 9957,7630 10003,7628L10061,7625L10061,7295L10062,6965L9910,6959L9910,7375L9848,7370L9787,7365L9746,7285C9705,7205 9705,7204 9703,7085L9702,6965L9676,6962C9641,6958 9635,6931 9635,6790L9635,6675L9702,6675L9702,6551L9703,6426L9722,6451C9732,6464 9749,6484 9758,6495C9813,6559 9829,6584 9823,6593C9820,6598 9822,6600 9828,6596C9833,6593 9852,6607 9869,6629C9898,6665 9903,6668 9965,6673C10075,6681 10065,6716 10063,6337L10062,6005L10015,6002L9969,5999L10005,5951C10024,5924 10040,5900 10040,5896C10040,5893 10060,5848 10084,5798C10152,5656 10248,5406 10274,5305C10297,5214 10312,5106 10317,4999C10325,4834 10305,4822 10040,4839C9904,4848 9842,4857 9751,4881C9652,4907 9568,4940 9550,4961C9540,4972 9439,5030 9430,5030C9424,5030 9399,5041 9372,5054C9346,5068 9305,5088 9280,5099C9255,5110 9217,5136 9195,5156C9159,5188 9047,5260 9033,5260C9030,5260 8979,5295 8921,5338C8827,5408 8737,5460 8711,5460C8703,5460 8581,5538 8570,5550C8567,5553 8480,5598 8376,5650C8164,5756 8036,5836 7973,5902C7950,5927 7887,5973 7833,6005C7747,6056 7682,6106 7589,6191C7550,6228 7349,6377 7200,6480C7168,6502 7129,6533 7110,6550C7063,6594 7000,6631 6799,6731C6638,6811 6538,6854 6436,6887C6358,6911 6279,6937 6260,6944C6210,6963 6170,6976 6035,7021C5969,7043 5906,7065 5895,7070C5844,7095 5742,7121 5715,7116C5698,7112 5673,7116 5657,7125C5642,7133 5592,7147 5547,7156C5502,7166 5459,7178 5452,7184C5435,7197 5440,7274 5464,7350C5473,7380 5485,7423 5491,7445C5496,7467 5513,7512 5529,7545C5545,7578 5563,7623 5570,7645C5591,7712 5619,7759 5668,7811C5729,7876 5740,7888 5740,7895C5740,7898 5756,7923 5775,7950C5794,7977 5810,8004 5810,8008C5810,8013 5826,8034 5845,8056C5865,8077 5891,8108 5903,8124C5915,8140 5933,8161 5943,8171C5952,8182 5960,8193 5960,8196C5960,8199 5989,8231 6024,8268C6060,8305 6103,8354 6122,8377C6140,8400 6160,8419 6165,8420C6171,8420 6204,8448 6240,8481C6276,8514 6326,8561 6353,8585C6379,8609 6400,8632 6400,8636C6400,8639 6413,8659 6429,8679C6493,8760 6569,8879 6576,8906C6579,8922 6588,8944 6595,8956C6608,8976 6605,8979 6542,9006C6460,9041 6389,9097 6353,9153C6338,9176 6322,9197 6319,9200C6316,9203 6303,9237 6291,9276C6272,9337 6269,9373 6268,9536C6267,9706 6269,9732 6288,9790C6300,9826 6310,9858 6310,9862C6310,9865 6275,9871 6233,9875C6157,9882 6135,9886 5980,9931C5889,9957 5758,10018 5710,10057C5691,10072 5656,10105 5633,10129C5589,10174 5583,10176 5475,10186C5442,10189 5375,10195 5325,10201C5276,10206 5192,10213 5140,10216C5045,10222 4986,10229 4875,10250C4842,10257 4811,10263 4805,10264C4800,10265 4790,10268 4785,10272C4779,10275 4757,10281 4736,10285C4619,10307 4445,10402 4379,10479C4324,10543 4310,10563 4310,10577C4310,10584 4306,10590 4300,10590C4295,10590 4290,10595 4290,10601C4290,10607 4284,10626 4276,10643C4258,10683 4227,10792 4206,10890C4176,11023 4170,11039 4118,11107C4061,11184 4052,11191 3992,11221C3969,11233 3935,11261 3917,11283C3899,11306 3865,11345 3840,11370C3722,11489 3650,11599 3634,11685C3630,11707 3621,11743 3613,11765C3588,11836 3558,12013 3557,12100C3554,12222 3569,12574 3580,12645C3585,12678 3594,12739 3601,12780C3607,12821 3614,12875 3617,12900C3619,12925 3628,12972 3637,13005C3667,13117 3666,13156 3624,13263C3589,13356 3583,13365 3485,13466C3325,13629 3242,13771 3232,13896C3223,14018 3279,14155 3371,14234C3411,14268 3445,14286 3613,14366C3755,14433 3872,14541 3899,14631C3906,14655 3921,14702 3932,14735C3943,14768 3959,14815 3967,14840C3975,14865 3986,14894 3991,14905C3999,14924 4028,15014 4049,15085C4054,15102 4061,15135 4065,15160C4082,15278 4130,15440 4172,15525C4205,15591 4252,15710 4274,15785C4293,15850 4293,15850 4340,15954C4357,15992 4380,16046 4391,16074C4403,16102 4416,16134 4421,16145C4425,16156 4443,16199 4460,16240C4492,16320 4502,16336 4625,16511C4701,16621 4795,16723 4890,16799C4915,16819 4937,16837 4940,16840C4950,16850 5056,16919 5100,16943C5309,17060 5416,17089 5721,17111C5806,17117 5877,17123 5879,17126C5891,17138 6227,17119 6333,17101ZM15098,15240C15161,15202 15170,15163 15170,14924C15170,14723 15169,14711 15147,14669C15107,14593 15091,14589 14825,14594C14591,14598 14570,14599 14570,14609C14570,14613 14558,14629 14543,14645L14515,14675L14515,15179L14545,15210C14562,15228 14584,15246 14595,15250C14606,15255 14716,15259 14840,15259C15049,15260 15067,15258 15098,15240ZM15859,15244C15874,15235 15897,15212 15910,15192C15935,15157 15935,15154 15935,14926C15935,14702 15934,14694 15912,14658C15872,14595 15850,14590 15606,14590C15361,14590 15337,14596 15301,14660C15281,14695 15280,14712 15280,14926C15281,15269 15272,15260 15603,15260C15795,15260 15836,15257 15859,15244ZM16360,15260L16360,14590L16210,14590L16210,15005L16105,15002C16047,15000 16000,15002 16000,15005C16000,15009 16046,15067 16103,15136L16205,15260L16360,15260ZM17016,15216L17060,15173L17059,14934C17059,14802 17056,14688 17052,14679C17048,14670 17032,14648 17016,14629L16987,14595L16751,14592C16402,14588 16410,14580 16410,14921C16410,15061 16414,15159 16421,15179C16427,15196 16449,15222 16468,15235C16504,15260 16507,15260 16739,15260L16973,15260L17016,15216ZM17490,15260L17490,14590L17340,14590L17340,14808C17340,14927 17336,15019 17332,15012C17326,15003 17296,15000 17221,15002L17119,15005L17149,15040C17166,15059 17185,15082 17193,15091C17200,15099 17235,15141 17270,15183L17335,15260L17490,15260ZM15874,14297C15880,14300 15882,14300 15878,14295C15874,14291 15883,14272 15899,14254C15937,14211 15943,14165 15938,13929L15935,13742L15903,13697C15885,13673 15872,13651 15874,13649C15884,13640 15810,13636 15598,13636C15385,13635 15370,13636 15344,13655C15285,13700 15280,13722 15280,13973C15280,14216 15283,14231 15332,14277C15355,14299 15364,14300 15580,14302C15704,14304 15818,14302 15834,14298C15850,14294 15868,14293 15874,14297ZM16348,14301C16357,14300 16360,14226 16360,13965L16360,13629L16288,13632L16215,13635L16210,13850C16207,13968 16201,14059 16197,14053C16187,14037 16000,14035 16000,14050C16000,14056 16047,14115 16104,14183L16209,14305L16272,14303C16307,14302 16341,14301 16348,14301ZM16939,14300C16977,14300 16988,14295 17022,14260L17060,14219L17060,13734L17030,13693C17013,13670 16986,13647 16968,13641C16950,13634 16854,13630 16731,13630C16499,13630 16475,13636 16432,13700C16409,13734 16409,13737 16412,13982L16415,14230L16446,14261C16463,14278 16492,14295 16509,14298C16527,14302 16621,14304 16718,14303C16815,14301 16915,14300 16939,14300ZM17490,14298L17490,13630L17340,13630L17340,13847C17340,14016 17337,14061 17328,14052C17314,14038 17134,14035 17126,14049C17123,14053 17132,14068 17146,14081C17159,14093 17168,14110 17165,14118C17163,14125 17164,14129 17169,14125C17174,14122 17190,14135 17205,14152C17220,14170 17256,14212 17285,14245L17338,14305L17414,14302L17490,14298ZM14805,12360C14856,12310 14862,12275 14858,12040L14855,11833L14827,11792C14811,11769 14785,11747 14768,11741C14726,11726 14323,11727 14281,11741C14261,11748 14241,11767 14224,11795L14199,11838L14202,12079L14205,12319L14235,12350C14252,12368 14274,12386 14285,12391C14296,12395 14409,12398 14537,12397L14769,12395L14805,12360ZM15280,12400L15280,11732L15209,11728C15170,11726 15136,11727 15134,11729C15132,11731 15130,11830 15130,11949C15130,12089 15126,12160 15120,12150C15113,12139 15088,12135 15021,12133C14971,12132 14928,12136 14924,12141C14919,12149 15020,12279 15072,12332C15081,12341 15096,12360 15105,12374C15121,12398 15128,12400 15201,12400L15280,12400ZM15941,12352L15981,12310L15975,11810L15937,11773L15900,11735L15662,11732C15318,11728 15330,11716 15330,12072C15330,12329 15332,12338 15396,12381C15423,12399 15443,12400 15663,12398L15901,12395L15941,12352ZM16668,12386C16683,12378 16706,12360 16720,12345C16745,12319 16745,12318 16748,12092C16752,11842 16747,11810 16700,11765L16669,11735L16172,11735L16146,11759C16095,11807 16088,11846 16092,12086C16095,12284 16097,12308 16115,12334C16157,12397 16172,12400 16418,12400C16590,12400 16647,12397 16668,12386ZM17453,12376C17472,12363 17491,12354 17494,12356C17497,12358 17498,12357 17496,12354C17493,12351 17498,12330 17506,12308C17524,12256 17526,11887 17508,11828C17502,11807 17481,11776 17463,11760L17429,11730L17194,11730C17048,11730 16951,11734 16939,11741C16928,11746 16906,11769 16890,11792L16860,11833L16860,12064C16860,12277 16862,12298 16880,12328C16891,12346 16914,12369 16932,12380C16962,12398 16983,12400 17191,12400C17414,12400 17418,12400 17453,12376ZM18210,12382C18233,12371 18253,12349 18268,12320C18289,12278 18290,12264 18290,12066C18290,11872 18288,11853 18269,11812C18230,11732 18219,11729 17948,11732L17711,11735L17681,11764C17631,11812 17629,11827 17632,12082C17635,12342 17634,12338 17705,12381C17732,12398 17758,12400 17955,12400C18144,12400 18180,12398 18210,12382ZM18979,12384C18994,12375 19017,12352 19030,12332C19055,12297 19055,12294 19055,12065L19055,11833L19027,11793C19012,11771 18988,11748 18974,11741C18958,11734 18873,11730 18729,11730C18476,11730 18453,11735 18420,11801C18402,11836 18400,11861 18400,12065C18400,12407 18392,12399 18728,12400C18915,12400 18956,12397 18979,12384ZM14109,11440L14115,11212L14210,11326L14305,11439L14388,11439L14470,11440L14468,11108L14465,10775L14388,10772L14310,10769L14309,10987C14309,11107 14306,11199 14303,11193C14300,11184 14270,11180 14204,11180L14110,11180L14108,10978L14105,10775L13955,10775L13952,10980L13950,11185L13845,11182C13787,11180 13740,11182 13740,11187C13740,11191 13773,11234 13813,11281C13852,11328 13899,11383 13915,11403L13945,11440L14109,11440ZM15120,11401C15140,11380 15160,11348 15164,11330C15167,11312 15170,11209 15170,11101C15170,10917 15169,10901 15148,10860C15135,10835 15109,10805 15090,10792C15056,10769 15051,10769 14830,10772C14614,10775 14603,10776 14576,10797C14560,10810 14543,10817 14537,10813C14532,10810 14530,10812 14533,10817C14537,10823 14533,10841 14525,10856C14513,10879 14510,10931 14510,11114C14510,11329 14511,11345 14531,11376C14568,11437 14580,11439 14844,11440L15083,11440L15120,11401ZM15853,11431C15867,11425 15891,11404 15907,11384L15935,11347L15935,11116C15935,10903 15933,10882 15915,10851C15904,10832 15882,10808 15867,10796C15840,10776 15824,10775 15612,10772C15389,10769 15384,10769 15351,10792C15284,10837 15280,10857 15280,11116C15280,11340 15281,11348 15303,11381C15315,11399 15337,11420 15350,11427C15380,11442 15815,11445 15853,11431ZM16360,11440L16360,10770L16210,10770L16210,10987C16210,11156 16207,11201 16198,11192C16184,11178 16000,11175 16000,11189C16000,11195 16030,11234 16066,11277C16102,11320 16148,11374 16167,11398L16203,11440L16360,11440ZM17001,11417C17058,11379 17060,11368 17060,11109C17060,10880 17059,10872 17037,10839C16995,10775 16971,10770 16729,10770L16513,10770L16472,10800C16412,10843 16408,10867 16412,11137C16415,11368 16415,11368 16440,11395C16454,11410 16474,11426 16485,11430C16496,11435 16609,11439 16736,11439C16960,11440 16968,11439 17001,11417ZM17490,11440L17490,10770L17340,10770L17340,10987C17340,11156 17337,11201 17328,11192C17312,11176 17130,11175 17130,11191C17130,11201 17171,11252 17292,11393L17332,11440L17490,11440ZM14108,9423C14109,9361 14114,9310 14118,9310C14122,9311 14143,9334 14165,9362C14187,9390 14212,9420 14221,9429C14229,9438 14254,9467 14275,9493L14313,9541L14465,9535L14465,8865L14395,8868C14357,8870 14322,8874 14318,8876C14314,8879 14310,8974 14310,9088C14310,9248 14307,9291 14298,9282C14290,9274 14253,9270 14198,9270L14110,9270L14110,9072C14110,8963 14108,8871 14106,8869C14104,8867 14068,8866 14026,8868L13950,8872L13950,9083C13950,9247 13947,9291 13938,9282C13930,9274 13892,9270 13833,9270C13758,9270 13740,9273 13740,9285C13740,9292 13746,9303 13753,9307C13760,9311 13788,9342 13815,9375C13842,9408 13884,9459 13908,9488L13952,9541L14029,9538L14105,9535L14108,9423ZM15090,9522C15113,9511 15133,9489 15148,9460C15170,9416 15171,9408 15168,9194L15165,8973L15137,8931C15122,8908 15098,8885 15084,8880C15070,8874 14956,8870 14830,8870L14602,8870L14570,8896C14512,8945 14510,8957 14510,9208L14510,9437L14540,9479C14557,9502 14581,9525 14593,9530C14605,9535 14714,9539 14835,9539C15025,9540 15060,9538 15090,9522ZM15843,9531C15880,9517 15917,9472 15930,9426C15938,9398 15940,9314 15938,9179C15935,8980 15934,8972 15910,8938C15865,8872 15858,8870 15605,8870C15350,8870 15339,8873 15301,8940C15281,8975 15280,8993 15280,9206C15280,9417 15282,9438 15300,9468C15341,9535 15360,9540 15602,9540C15721,9540 15830,9536 15843,9531ZM16657,9497L16695,9460L16700,9232C16703,9107 16702,8991 16697,8973C16693,8956 16672,8926 16650,8906L16610,8870L16374,8870C16037,8870 16050,8856 16050,9207C16050,9469 16052,9478 16116,9521C16143,9539 16163,9540 16382,9538L16620,9535L16657,9497ZM17388,9526C17403,9518 17426,9500 17440,9485L17465,9458L17465,8949L17423,8909L17381,8870L17151,8870C17025,8870 16910,8874 16897,8879C16883,8885 16859,8906 16843,8926L16815,8963L16815,9204C16815,9441 16815,9446 16838,9475C16886,9536 16902,9540 17143,9540C17311,9540 17367,9537 17388,9526ZM17895,9535L17895,8868L17822,8867L17750,8865L17750,9085C17749,9270 17747,9302 17736,9288C17725,9273 17707,9270 17633,9270C17584,9270 17540,9273 17537,9276C17534,9280 17544,9299 17561,9319C17578,9339 17626,9397 17667,9448L17742,9541L17819,9538L17895,9535ZM10698,7610C10718,7597 10739,7572 10751,7544C10770,7503 10771,7481 10768,7282C10765,7037 10759,7016 10688,6979C10655,6962 10628,6960 10440,6960C10201,6960 10178,6965 10136,7026L10110,7065L10110,7293C10110,7543 10112,7555 10170,7604L10202,7630L10433,7630C10648,7630 10667,7628 10698,7610ZM12621,7583L12660,7541L12660,7303C12660,7083 12658,7063 12640,7032C12629,7014 12606,6991 12588,6980C12558,6962 12537,6960 12335,6961C12001,6961 12010,6951 12010,7298C12010,7556 12014,7574 12073,7611C12103,7629 12121,7630 12343,7628L12581,7625L12621,7583ZM13090,7630L13090,6960L12940,6960L12940,7176C12940,7360 12938,7391 12926,7381C12917,7373 12878,7370 12815,7372L12717,7375L12743,7405C12757,7422 12806,7479 12851,7533L12934,7630L13090,7630ZM14017,7610C14080,7572 14085,7551 14085,7299C14085,6957 14088,6960 13755,6960C13513,6960 13499,6963 13455,7027C13430,7065 13430,7065 13430,7300L13430,7535L13461,7574C13479,7595 13502,7616 13514,7620C13526,7625 13636,7629 13760,7629C13966,7630 13988,7628 14017,7610ZM14509,7630L14515,7386L14715,7630L14870,7630L14870,6959L14798,6962L14725,6965L14722,7170L14720,7375L14510,7369L14510,6960L14360,6960L14360,7375L14254,7372C14192,7370 14149,7372 14151,7378C14153,7383 14200,7442 14255,7508L14355,7629L14432,7630L14509,7630ZM15493,7618C15528,7600 15559,7558 15571,7516C15577,7493 15580,7395 15578,7270L15575,7063L15547,7027C15498,6963 15486,6960 15243,6960C15000,6960 14981,6964 14940,7032C14922,7062 14920,7083 14920,7293C14920,7547 14924,7567 14983,7608C15014,7629 15022,7630 15243,7630C15397,7630 15478,7626 15493,7618ZM15999,7630L16005,7386L16104,7508L16204,7630L16360,7630L16360,7385L16386,7415C16400,7432 16446,7487 16488,7538L16565,7630L16720,7630L16720,6960L16570,6960L16570,7375L16360,7369L16360,6960L16210,6960L16209,7178C16209,7297 16206,7389 16203,7383C16200,7374 16169,7370 16099,7370L16000,7370L16000,6960L15850,6960L15850,7375L15745,7372C15687,7370 15640,7372 15640,7377C15640,7381 15652,7399 15666,7415C15680,7432 15726,7487 15768,7538L15845,7630L15999,7630ZM17356,7608C17418,7565 17420,7556 17420,7298C17420,7083 17418,7062 17400,7032C17359,6964 17340,6960 17096,6960C16891,6960 16875,6961 16839,6982C16774,7018 16770,7038 16770,7294C16770,7547 16775,7575 16832,7610C16863,7628 16882,7630 17094,7630C17314,7630 17325,7629 17356,7608ZM10690,6660C10704,6654 10726,6633 10740,6613C10765,6577 10765,6573 10768,6356C10771,6143 10770,6133 10748,6091C10705,6008 10697,6005 10462,6002C10323,6000 10242,6002 10215,6010C10174,6023 10135,6058 10119,6098C10114,6111 10110,6222 10110,6345C10110,6684 10102,6676 10440,6672C10564,6671 10676,6665 10690,6660ZM11497,6625C11538,6577 11544,6532 11537,6294C11532,6111 11531,6108 11503,6068C11460,6005 11439,6000 11205,6000C10967,6000 10937,6008 10900,6080C10882,6116 10880,6138 10880,6345C10880,6676 10869,6663 11164,6670C11433,6676 11455,6673 11497,6625ZM11960,6671C11963,6670 11964,6635 11962,6592C11960,6549 11960,6496 11962,6475L11965,6437L12053,6541C12101,6598 12147,6652 12154,6660C12164,6671 12189,6675 12242,6674L12315,6674L12320,6555L12325,6437L12383,6506C12416,6544 12454,6590 12468,6608C12519,6671 12524,6673 12597,6672C12634,6672 12670,6671 12675,6671C12682,6670 12684,6553 12682,6335L12679,5999L12535,6005L12530,6220C12527,6338 12521,6429 12517,6423C12511,6414 12479,6410 12415,6410L12320,6410L12318,6208L12315,6005L12175,6005L12170,6220C12167,6338 12161,6429 12157,6423C12151,6414 12119,6410 12054,6410L11960,6410L11960,5999L11888,6002L11815,6005L11810,6220C11807,6338 11801,6429 11797,6423C11786,6406 11600,6405 11600,6421C11600,6427 11627,6464 11661,6504C11695,6543 11735,6591 11751,6610C11806,6676 11803,6675 11882,6673C11922,6672 11957,6671 11960,6671Z" style="fill:rgb(69,137,102);fill-rule:nonzero;"/>
        <path d="M14248,15003L14190,14999L14232,14947C14254,14918 14281,14877 14291,14855L14310,14815L14310,14913C14310,14966 14309,15009 14308,15008C14306,15007 14279,15005 14248,15003Z" style="fill:rgb(69,137,102);fill-rule:nonzero;"/>
        <path d="M13580,12131C13580,12023 13581,12018 13598,12032C13607,12040 13660,12085 13715,12131C13770,12177 13823,12222 13832,12230C13847,12243 13834,12245 13714,12245L13580,12245L13580,12131Z" style="fill:rgb(69,137,102);fill-rule:nonzero;"/>
        <path d="M13798,12001L13672,11895L13797,11892C13866,11891 13925,11891 13927,11893C13929,11896 13929,11944 13928,12002L13925,12106L13798,12001Z" style="fill:rgb(69,137,102);fill-rule:nonzero;"/>
        <path d="M13360,11253C13360,11232 13364,11220 13368,11225C13372,11231 13390,11248 13408,11263L13442,11290L13401,11290C13360,11290 13360,11290 13360,11253Z" style="fill:rgb(69,137,102);fill-rule:nonzero;"/>
        <path d="M13498,11141C13497,11137 13467,11110 13433,11081C13371,11030 13370,11028 13370,10980L13370,10930L13525,10930L13525,11040C13525,11117 13522,11150 13513,11150C13507,11150 13500,11146 13498,11141Z" style="fill:rgb(69,137,102);fill-rule:nonzero;"/>
        <path d="M13187,9367C13172,9357 13170,9340 13172,9256L13175,9157L13255,9226C13299,9264 13358,9314 13385,9337L13435,9379L13319,9380C13241,9380 13198,9376 13187,9367Z" style="fill:rgb(69,137,102);fill-rule:nonzero;"/>
        <path d="M13484,9219C13474,9207 13443,9180 13415,9159C13388,9138 13343,9101 13315,9076L13265,9031L13395,9030L13525,9030L13524,9132C13523,9188 13519,9235 13513,9237C13508,9239 13495,9231 13484,9219Z" style="fill:rgb(69,137,102);fill-rule:nonzero;"/>
        <path d="M12195,8470C12191,8464 12202,8460 12222,8460C12247,8460 12251,8463 12240,8470C12221,8483 12203,8483 12195,8470Z" style="fill:rgb(69,137,102);fill-rule:nonzero;"/>
        <path d="M11490,7580C11428,7575 11423,7573 11460,7570C11524,7566 11593,7571 11610,7581C11627,7590 11611,7590 11490,7580Z" style="fill:rgb(69,137,102);fill-rule:nonzero;"/>
        <path d="M9897,7573C9893,7570 9890,7562 9890,7556C9890,7550 9895,7551 9902,7558C9908,7564 9911,7572 9909,7575C9906,7578 9900,7577 9897,7573Z" style="fill:rgb(69,137,102);fill-rule:nonzero;"/>
        <path d="M11390,7480L11390,7245L11413,7268C11425,7280 11485,7331 11545,7381C11606,7431 11657,7474 11659,7476C11661,7478 11602,7480 11527,7480L11390,7480Z" style="fill:rgb(69,137,102);fill-rule:nonzero;"/>
        <path d="M11655,7273C11611,7237 11553,7187 11525,7163L11475,7120L11740,7120L11740,7230C11740,7291 11739,7340 11737,7340C11736,7340 11699,7310 11655,7273Z" style="fill:rgb(69,137,102);fill-rule:nonzero;"/>
        <path d="M9897,6423C9891,6414 9860,6410 9799,6410C9750,6410 9710,6408 9710,6405C9710,6399 9749,6325 9778,6275C9787,6259 9820,6214 9850,6177L9905,6108L9908,6189C9912,6309 9906,6437 9897,6423Z" style="fill:rgb(69,137,102);fill-rule:nonzero;"/>
        <path d="M14660,15110L14660,14877L14683,14897C14719,14929 14852,15042 14895,15078L14935,15110L14660,15110Z" style="fill:rgb(69,137,102);fill-rule:nonzero;"/>
        <path d="M14878,14862L14751,14755L14877,14752C14946,14751 15004,14751 15006,14752C15011,14758 15015,14970 15010,14969C15007,14969 14948,14921 14878,14862Z" style="fill:rgb(69,137,102);fill-rule:nonzero;"/>
        <path d="M15430,15110L15430,14878L15493,14931C15527,14960 15562,14990 15570,14999C15578,15008 15603,15029 15624,15045C15716,15116 15721,15110 15568,15110L15430,15110Z" style="fill:rgb(69,137,102);fill-rule:nonzero;"/>
        <path d="M15648,14863L15520,14755L15646,14752C15716,14751 15775,14751 15777,14753C15779,14756 15779,14805 15778,14864L15775,14971L15648,14863Z" style="fill:rgb(69,137,102);fill-rule:nonzero;"/>
        <path d="M16560,15110L16560,14879L16690,14990C16762,15051 16820,15103 16820,15106C16820,15108 16762,15110 16690,15110L16560,15110Z" style="fill:rgb(69,137,102);fill-rule:nonzero;"/>
        <path d="M16823,14903C16780,14865 16722,14816 16695,14793L16645,14751L16778,14750L16910,14750L16910,14860C16910,14921 16908,14970 16906,14970C16904,14970 16866,14940 16823,14903Z" style="fill:rgb(69,137,102);fill-rule:nonzero;"/>
        <path d="M15430,14045C15430,13985 15434,13940 15440,13940C15445,13940 15467,13957 15490,13978C15512,14000 15530,14015 15530,14013C15530,14010 15649,14108 15685,14141C15690,14146 15638,14150 15562,14150L15430,14150L15430,14045Z" style="fill:rgb(69,137,102);fill-rule:nonzero;"/>
        <path d="M15644,13906L15514,13795L15643,13792C15714,13791 15775,13791 15777,13793C15779,13796 15779,13847 15778,13907L15775,14016L15644,13906Z" style="fill:rgb(69,137,102);fill-rule:nonzero;"/>
        <path d="M16560,14150L16560,13928L16613,13971C16641,13995 16697,14041 16735,14074C16774,14107 16809,14138 16815,14142C16820,14146 16765,14150 16692,14150L16560,14150Z" style="fill:rgb(69,137,102);fill-rule:nonzero;"/>
        <path d="M16815,13943C16766,13902 16706,13850 16683,13829L16640,13790L16910,13790L16910,13905C16910,13968 16909,14020 16908,14020C16906,14019 16865,13985 16815,13943Z" style="fill:rgb(69,137,102);fill-rule:nonzero;"/>
        <path d="M14368,12242C14352,12239 14350,12225 14350,12128L14350,12017L14373,12037C14385,12048 14442,12097 14500,12145C14558,12193 14608,12235 14612,12239C14619,12245 14400,12248 14368,12242Z" style="fill:rgb(69,137,102);fill-rule:nonzero;"/>
        <path d="M14695,12109L14441,11895L14567,11892C14636,11891 14695,11891 14697,11893C14699,11896 14699,11945 14698,12003L14695,12109Z" style="fill:rgb(69,137,102);fill-rule:nonzero;"/>
        <path d="M15480,12245L15480,12019L15599,12119C15664,12175 15722,12226 15728,12233C15736,12242 15711,12245 15609,12245L15480,12245Z" style="fill:rgb(69,137,102);fill-rule:nonzero;"/>
        <path d="M15698,12002L15571,11895L15697,11892C15766,11891 15825,11891 15827,11893C15829,11896 15829,11945 15828,12004L15825,12110L15698,12002Z" style="fill:rgb(69,137,102);fill-rule:nonzero;"/>
        <path d="M16273,12243C16252,12239 16251,12233 16248,12130C16245,12010 16244,12011 16306,12067C16323,12082 16363,12117 16396,12145C16428,12172 16468,12206 16483,12220L16511,12246L16403,12246C16344,12247 16285,12245 16273,12243Z" style="fill:rgb(69,137,102);fill-rule:nonzero;"/>
        <path d="M16557,12081C16537,12066 16523,12050 16527,12046C16530,12043 16528,12040 16521,12040C16509,12040 16442,11987 16360,11913L16335,11890L16600,11890L16600,12000C16600,12061 16598,12110 16596,12110C16594,12110 16577,12097 16557,12081Z" style="fill:rgb(69,137,102);fill-rule:nonzero;"/>
        <path d="M17014,12236C17011,12229 17011,12178 17012,12122L17015,12021L17071,12068C17123,12111 17170,12150 17253,12222L17285,12248L17152,12248C17058,12248 17017,12244 17014,12236Z" style="fill:rgb(69,137,102);fill-rule:nonzero;"/>
        <path d="M17299,12057C17231,12002 17200,11975 17141,11923L17105,11890L17365,11890L17365,12000C17365,12060 17364,12110 17364,12110C17363,12110 17334,12086 17299,12057Z" style="fill:rgb(69,137,102);fill-rule:nonzero;"/>
        <path d="M17784,12235C17781,12229 17781,12178 17782,12122L17785,12021L17915,12131C17986,12191 18046,12242 18047,12244C18049,12246 17992,12247 17919,12247C17829,12247 17787,12243 17784,12235Z" style="fill:rgb(69,137,102);fill-rule:nonzero;"/>
        <path d="M18029,12028C17983,11988 17927,11940 17905,11923L17865,11890L18130,11890L18130,11995C18130,12053 18126,12100 18122,12100C18118,12100 18076,12067 18029,12028Z" style="fill:rgb(69,137,102);fill-rule:nonzero;"/>
        <path d="M18550,12245L18550,12018L18602,12062C18631,12085 18672,12122 18695,12143C18717,12164 18735,12180 18735,12178C18736,12176 18756,12192 18779,12212L18823,12249L18687,12247L18550,12245Z" style="fill:rgb(69,137,102);fill-rule:nonzero;"/>
        <path d="M18846,12067C18819,12044 18761,11995 18718,11958L18639,11890L18900,11890L18900,12000C18900,12061 18899,12110 18898,12110C18896,12110 18873,12091 18846,12067Z" style="fill:rgb(69,137,102);fill-rule:nonzero;"/>
        <path d="M14660,11180C14660,11120 14662,11070 14665,11070C14672,11070 14920,11281 14920,11286C14920,11288 14862,11290 14790,11290L14660,11290L14660,11180Z" style="fill:rgb(69,137,102);fill-rule:nonzero;"/>
        <path d="M14885,11054C14825,11002 14768,10952 14760,10944C14748,10932 14763,10930 14878,10930L15010,10930L15010,11040C15010,11101 15007,11150 15003,11150C14998,11149 14946,11106 14885,11054Z" style="fill:rgb(69,137,102);fill-rule:nonzero;"/>
        <path d="M15430,11179C15430,11094 15433,11071 15443,11076C15455,11084 15650,11249 15680,11276C15692,11288 15675,11290 15562,11290L15430,11290L15430,11179Z" style="fill:rgb(69,137,102);fill-rule:nonzero;"/>
        <path d="M15637,11039L15509,10930L15780,10930L15780,11040C15780,11101 15777,11150 15773,11149C15768,11149 15707,11100 15637,11039Z" style="fill:rgb(69,137,102);fill-rule:nonzero;"/>
        <path d="M16560,11179C16560,11074 16561,11068 16578,11081C16601,11099 16791,11259 16810,11277C16822,11288 16803,11290 16692,11290L16560,11290L16560,11179Z" style="fill:rgb(69,137,102);fill-rule:nonzero;"/>
        <path d="M16870,11127C16834,11095 16764,11035 16682,10966L16638,10930L16910,10930L16910,11045C16910,11108 16909,11160 16908,11160C16906,11160 16889,11145 16870,11127Z" style="fill:rgb(69,137,102);fill-rule:nonzero;"/>
        <path d="M14660,9380L14660,9159L14683,9177C14745,9226 14920,9373 14920,9376C14920,9378 14862,9380 14790,9380L14660,9380Z" style="fill:rgb(69,137,102);fill-rule:nonzero;"/>
        <path d="M14984,9228C14968,9215 14909,9166 14852,9118L14750,9030L15009,9030L15012,9140C15014,9201 15014,9250 15014,9250C15013,9250 15000,9240 14984,9228Z" style="fill:rgb(69,137,102);fill-rule:nonzero;"/>
        <path d="M15430,9380L15430,9158L15488,9206C15542,9252 15664,9355 15685,9372C15690,9376 15635,9380 15562,9380L15430,9380Z" style="fill:rgb(69,137,102);fill-rule:nonzero;"/>
        <path d="M15646,9140L15518,9030L15780,9030L15780,9140C15780,9201 15779,9250 15778,9250C15776,9250 15717,9200 15646,9140Z" style="fill:rgb(69,137,102);fill-rule:nonzero;"/>
        <path d="M16200,9380L16200,9158L16239,9192C16261,9210 16317,9257 16364,9295C16410,9334 16449,9368 16449,9373C16450,9377 16394,9380 16325,9380L16200,9380Z" style="fill:rgb(69,137,102);fill-rule:nonzero;"/>
        <path d="M16459,9177C16412,9137 16354,9088 16330,9068L16286,9030L16550,9030L16550,9140C16550,9201 16549,9250 16548,9250C16546,9249 16506,9217 16459,9177Z" style="fill:rgb(69,137,102);fill-rule:nonzero;"/>
        <path d="M16969,9323C16968,9194 16968,9169 16972,9165C16974,9163 16996,9180 17022,9203C17047,9226 17080,9255 17096,9267C17112,9279 17148,9309 17175,9334L17225,9379L17098,9380L16970,9380L16969,9323Z" style="fill:rgb(69,137,102);fill-rule:nonzero;"/>
        <path d="M17220,9170C17168,9126 17126,9085 17128,9079C17129,9073 17127,9071 17122,9074C17118,9076 17101,9068 17084,9055L17055,9031L17188,9030L17320,9030L17320,9140C17320,9201 17319,9250 17318,9250C17316,9250 17272,9214 17220,9170Z" style="fill:rgb(69,137,102);fill-rule:nonzero;"/>
        <path d="M10260,7480L10260,7246L10293,7275C10310,7291 10336,7315 10350,7327C10364,7339 10407,7375 10445,7406C10484,7437 10519,7467 10525,7472C10530,7476 10473,7480 10397,7480L10260,7480Z" style="fill:rgb(69,137,102);fill-rule:nonzero;"/>
        <path d="M10545,7288C10511,7259 10453,7210 10416,7180L10348,7125L10475,7122C10545,7121 10605,7121 10607,7123C10609,7126 10609,7175 10608,7234L10605,7340L10545,7288Z" style="fill:rgb(69,137,102);fill-rule:nonzero;"/>
        <path d="M12160,7370C12160,7310 12163,7260 12166,7260C12170,7260 12189,7275 12209,7293C12229,7310 12270,7345 12300,7370C12330,7395 12370,7430 12390,7447L12425,7479L12293,7480L12160,7480L12160,7370Z" style="fill:rgb(69,137,102);fill-rule:nonzero;"/>
        <path d="M12376,7233L12247,7125L12375,7122C12445,7121 12505,7121 12507,7123C12509,7126 12509,7175 12508,7234L12505,7340L12376,7233Z" style="fill:rgb(69,137,102);fill-rule:nonzero;"/>
        <path d="M13580,7480L13580,7248L13637,7297C13740,7384 13750,7393 13744,7401C13741,7406 13745,7408 13752,7405C13759,7403 13785,7419 13809,7440L13853,7480L13580,7480Z" style="fill:rgb(69,137,102);fill-rule:nonzero;"/>
        <path d="M13797,7232L13670,7125L13796,7122C13866,7121 13925,7121 13927,7123C13929,7126 13929,7175 13928,7233L13925,7339L13797,7232Z" style="fill:rgb(69,137,102);fill-rule:nonzero;"/>
        <path d="M15070,7480L15070,7249L15198,7356C15268,7415 15329,7467 15335,7472C15340,7476 15282,7480 15207,7480L15070,7480Z" style="fill:rgb(69,137,102);fill-rule:nonzero;"/>
        <path d="M15288,7233L15160,7125L15286,7122C15356,7121 15415,7121 15417,7123C15419,7126 15419,7175 15418,7234L15415,7341L15288,7233Z" style="fill:rgb(69,137,102);fill-rule:nonzero;"/>
        <path d="M16920,7480L16920,7249L17011,7327C17062,7370 17121,7422 17144,7442L17185,7479L17053,7480L16920,7480Z" style="fill:rgb(69,137,102);fill-rule:nonzero;"/>
        <path d="M17136,7233L17007,7125L17135,7122C17205,7121 17265,7121 17267,7123C17269,7126 17269,7175 17268,7234L17265,7340L17136,7233Z" style="fill:rgb(69,137,102);fill-rule:nonzero;"/>
        <path d="M10260,6409C10260,6304 10261,6298 10278,6311C10298,6327 10488,6487 10510,6507C10522,6518 10503,6520 10392,6520L10260,6520L10260,6409Z" style="fill:rgb(69,137,102);fill-rule:nonzero;"/>
        <path d="M10529,6322C10395,6207 10375,6189 10355,6175C10337,6162 10350,6161 10473,6160L10610,6160L10610,6270C10610,6331 10607,6380 10603,6380C10598,6379 10565,6354 10529,6322Z" style="fill:rgb(69,137,102);fill-rule:nonzero;"/>
        <path d="M11030,6520L11030,6298L11083,6341C11111,6365 11167,6411 11205,6444C11244,6477 11279,6508 11285,6512C11290,6516 11235,6520 11162,6520L11030,6520Z" style="fill:rgb(69,137,102);fill-rule:nonzero;"/>
        <path d="M11275,6302C11225,6260 11167,6211 11146,6194L11108,6162L11244,6161L11380,6159L11380,6270C11380,6330 11377,6380 11373,6380C11368,6379 11324,6345 11275,6302Z" style="fill:rgb(69,137,102);fill-rule:nonzero;"/>
    </g>
</svg>
